<svg width="15" height="15" viewBox="0 0 15 15" fill="none" xmlns="http://www.w3.org/2000/svg">
<path d="M7.50001 0.416664C3.59001 0.416664 0.416672 3.59 0.416672 7.5C0.416672 11.41 3.59001 14.5833 7.50001 14.5833H11.0417V13.1667H7.50001C4.42584 13.1667 1.83334 10.5742 1.83334 7.5C1.83334 4.42583 4.42584 1.83333 7.50001 1.83333C10.5742 1.83333 13.1667 4.42583 13.1667 7.5V8.51291C13.1667 9.0725 12.6638 9.625 12.1042 9.625C11.5446 9.625 11.0417 9.0725 11.0417 8.51291V7.5C11.0417 5.545 9.45501 3.95833 7.50001 3.95833C5.54501 3.95833 3.95834 5.545 3.95834 7.5C3.95834 9.455 5.54501 11.0417 7.50001 11.0417C8.47751 11.0417 9.37001 10.645 10.0075 10.0004C10.4679 10.6308 11.2613 11.0417 12.1042 11.0417C13.4996 11.0417 14.5833 9.90833 14.5833 8.51291V7.5C14.5833 3.59 11.41 0.416664 7.50001 0.416664ZM7.50001 9.625C6.32417 9.625 5.37501 8.67583 5.37501 7.5C5.37501 6.32416 6.32417 5.375 7.50001 5.375C8.67584 5.375 9.62501 6.32416 9.62501 7.5C9.62501 8.67583 8.67584 9.625 7.50001 9.625Z" fill="#B4B4B4"/>
</svg>
